<?xml version="1.0" encoding="iso-8859-1"?>
<!DOCTYPE svg PUBLIC "-//W3C//DTD SVG 1.1//EN" "http://www.w3.org/Graphics/SVG/1.1/DTD/svg11.dtd">
<svg 
 version="1.1" xmlns="http://www.w3.org/2000/svg" xmlns:xlink="http://www.w3.org/1999/xlink" x="0px" y="0px" width="512px"
	 height="512px" viewBox="0 0 512 512" style="enable-background:new 0 0 512 512;" xml:space="preserve"
><g id="afcae5a789ccd549f9c6e2a2f81349da"><g></g><path style="display: inline; fill:#8d8d8d;" d="M500.464,210.406c0,0-26.865-38.88-73.317-34.293
		c-47.356,4.675-79.533,53.669-79.533,53.669s-22.15-30.623-48.142-44.858c-11.14-6.093-23.027-8.963-32.827-10.274v294.263
		c-4.93,24.294-26.41,42.587-52.159,42.587c-25.749,0-47.229-18.293-52.163-42.587h22.086c4.4,12.386,16.2,21.293,30.077,21.293
		c13.876,0,26.466-8.907,30.866-21.293V174.65c-9.796,1.311-21.684,4.181-32.823,10.274c-25.992,14.235-48.142,44.858-48.142,44.858
		s-32.177-48.995-79.538-53.669c-46.448-4.587-73.313,34.293-73.313,34.293S0.027,149.077,102.042,55.044
		C146.035,14.49,211.828,4.057,245.352,1.399V0.506c0,0,3.929-0.068,10.648,0.231c6.719-0.299,10.645-0.231,10.645-0.231v0.893
		c33.528,2.658,99.32,13.091,143.313,53.646C511.973,149.077,500.464,210.406,500.464,210.406z"></path></g></svg>