<?xml version="1.0" encoding="iso-8859-1"?>
<!DOCTYPE svg PUBLIC "-//W3C//DTD SVG 1.1//EN" "http://www.w3.org/Graphics/SVG/1.1/DTD/svg11.dtd">
<svg 
 version="1.1" xmlns="http://www.w3.org/2000/svg" xmlns:xlink="http://www.w3.org/1999/xlink" x="0px" y="0px" width="512px"
	 height="512px" viewBox="0 0 512 512" enable-background="new 0 0 512 512" xml:space="preserve"
><g id="2020da7681f0d538108a21c6020099b7"><g></g><g fill="#457ab1"><path display="inline" d="M405.043,148.476c-3.028,0-6.022,0.16-8.982,0.409C374.243,86.656,315.029,42.019,245.355,42.019
		c-84.619,0-153.824,65.832-159.298,149.063c-0.135,0-0.26-0.02-0.389-0.02c-47.038,0-85.168,38.13-85.168,85.164
		c0,47.038,38.13,85.168,85.168,85.168h319.375c58.795,0,106.457-47.661,106.457-106.456
		C511.5,196.137,463.838,148.476,405.043,148.476z M405.043,330.733H85.668c-30.056,0-54.508-24.452-54.508-54.508
		c0-29.737,23.938-53.984,53.555-54.494l0.16,0.01h1.183h28.709l1.886-28.649c4.441-67.523,60.971-120.415,128.703-120.415
		c54.729,0,103.662,34.702,121.772,86.351l7.854,22.401l23.653-1.996c2.4-0.199,4.496-0.299,6.407-0.299
		c41.794,0,75.797,34.003,75.797,75.802C480.84,296.73,446.837,330.733,405.043,330.733z M335.205,233.644
		c0,8.469-6.861,15.33-15.33,15.33c-23.14,0-48.545,25.405-48.545,48.545c0,8.469-6.861,15.33-15.33,15.33s-15.33-6.861-15.33-15.33
		c0-39.972,39.233-79.205,79.205-79.205C328.344,218.313,335.205,225.175,335.205,233.644z M281.55,444.432
		c0,14.112-11.438,25.55-25.55,25.55s-25.55-11.438-25.55-25.55c0-14.113,11.438-51.101,25.55-51.101S281.55,430.318,281.55,444.432
		z M383.75,444.432c0,14.112-11.438,25.55-25.55,25.55s-25.55-11.438-25.55-25.55c0-14.113,11.438-51.101,25.55-51.101
		S383.75,430.318,383.75,444.432z M179.35,444.432c0,14.112-11.438,25.55-25.55,25.55c-14.112,0-25.55-11.438-25.55-25.55
		c0-14.113,11.438-51.101,25.55-51.101C167.913,393.331,179.35,430.318,179.35,444.432z"></path></g></g></svg>